<svg xmlns="http://www.w3.org/2000/svg" xml:space="preserve" width="128" height="128" data-id="lg_AYABgVWv2S0x8sscN4" data-version="1"><g data-padding="20"><g transform="translate(54.086 52.6)scale(.17706)"><circle cx="-366.653" cy="-357.092" r="59" fill="#3e4e50" transform="matrix(.94 0 0 .94 175.76 400.02)"/><path fill="#3e4e50" stroke="transparent" d="M-47.244 42.463q1.43 1.71 2 2.76.57 1.04.57 1.99 0 1.14-1.48 2.66-1.47 1.52-2.89 1.52-1.91 0-3.05-.57-1.13-.57-1.89-1.8-1.53-2.28-3.71-3.95-2.19-1.66-6.84-1.66-3.99 0-9.07 1.81-5.08 1.8-7.27 4.46-1.9 2.38-3.28 7.22-1.37 4.85-1.37 9.41 0 5.51 2.42 10.11 2.42 4.61 7.03 7.37 4.61 2.75 11.06 2.75 3.52 0 7.27-1.38 3.76-1.37 6.51-4.51h-.1q1.72-1.8 4.28-1.8 1.52 0 2.9 1.33t1.38 2.66q0 1.42-.43 2.51-.43 1.1-1.57 2.43-3.89 4.37-9.21 5.98-5.32 1.62-12.73 1.62-6.56 0-13.26-3.14-6.69-3.13-10.3-7.6-1.9-2.75-3.66-7.93t-1.76-8.41q0-8.26 2.52-15.72t7.55-11.92q3.33-3.04 9.6-4.56 6.26-1.52 11.49-1.52 6.37 0 10.02 1.75 3.66 1.76 7.27 6.13m24.42-7.5q0 2.47-.1 5.74-.1 3.28-.19 4.99-.29 4.85-.29 9.69 0 3.61.29 7.51 2.95-4.28 6.37-6.27 3.42-2 8.26-2 3.52 0 6.56 3.14 3.03 3.13 3.89 7.31.29 3.71.29 9.03 0 3.42.38 8.93.19 2.09 1.09 3.89.9 1.81 2.61 1.81.86 0 1.38-.1.52-.09 1-.09 1.32 0 1.85.66.52.67.52 1.9 0 2.28-2.28 3.42t-4.18 1.14q-6.84 0-9.4-5.7-1.43-3.23-1.81-8.41-.38-5.17-.38-12.11 0-6.84-4.65-6.84-2.57 0-5.18 2.71t-4.32 7.12q-1.71 4.42-1.71 9.17l.09 9.88q0 2.09-1.61 3.09-1.62 1-3.04 1-2.09 0-3.8-1.29-1.72-1.28-1.72-2.89.67-7.13.67-23.85 0-3.04-.48-22.51l-.28-8.74q0-2.09 1.9-3.66t4.28-1.57q2.09 0 3.04.95t.95 2.95m82.84 55.68q0 2.09-2.24 3.51-2.23 1.43-4.13 1.43-3.61 0-5.75-.91-2.13-.9-3.94-3.37-2.47 2.19-6.74 3.28-4.28 1.09-7.89 1.09-5.89 0-9.69-3.18t-3.8-9.36q0-2.66 1.43-4.89 1.42-2.23 3.89-3.94 2.76-1.81 6.27-2.81 3.52-.99 7.32-.99 1.99 0 4.75.76 2.75.76 4.27 1.61v-1.52q0-5.13-2.47-7.08-2.47-1.94-7.98-1.94-1.61 0-3.18.66-1.57.67-3.56 1.81-2.66 1.42-5.04 1.42-.85 0-1.61-1.19-.76-1.18-.76-2.13 0-2.76 2.61-4.75 2.61-2 6.22-3 3.61-.99 6.46-.99t6.56 1.09q3.7 1.09 6.08 2.99 2.85 2.47 4.41 5.75 1.57 3.28 1.57 7.17 0 1.24-.19 3.71-.19 2.66-.19 4.56 0 .85-.19 2.56-.19 2.09-.19 3.33 0 1.14.86 1.94.85.81 1.99.81l2.66-.09q1.05 0 1.62.76t.57 1.9m-30.59-2.47q4.08 0 6.84-.86 2.75-.85 6.65-3.13.38-1.62.47-4.28-5.22-2.47-8.64-2.47-3.9 0-6.94 1.43-3.04 1.42-3.04 5.03 0 1.81 1.52 3.04 1.52 1.24 3.14 1.24m41.42-25.46-4.56-.38q-1.33-.19-2.14-1.14t-.81-2.28q0-.67.33-1.43.34-.76 1-1.33 1.24-1.23 6.65-1.23.76-3.71.76-7.51 0-1.42-.09-2.47-.1-1.04-.1-1.61 0-2.09 1.57-3.14 1.57-1.04 3.56-1.04 2.47 0 3.37 1.23.91 1.24.91 4.56 0 4.94-.86 9.69 1.52 0 4.18-.19 3.61-.19 5.23-.19 1.61 0 2.8.81t1.19 2.23q0 3.71-3.33 4.37-3.51.86-10.92 1.05-.29 3.7-.29 8.07 0 6.84.86 11.21.57 3.04 1.94 4.42 1.38 1.38 4.14 1.38 1.61 0 3.32-.86 1.14-.66 2.09-.66 1.33 0 1.95.85.62.86.62 2.28 0 2.66-2.85 4.42t-7.32 1.76q-2.75 0-5.56-1.33-2.8-1.33-4.7-3.33-.28-.28-1.04-2.18t-1.33-4.09q-.95-4.46-.95-12.54 0-3.51.38-9.4m41.8 17.75q0 3.61 1.09 5.56t2.8 1.95q.95 0 1.81-.15.85-.14 1.7-.14.96 0 1.67.95t.71 2.09q0 2.28-2.14 3.56-2.13 1.29-5.75 1.29-2.56 0-5.17-1.57t-4.33-4.94q-1.7-3.37-1.7-8.41 0-10.83.38-18.33.47-8.93.47-22.52 0-4.27.47-5.98.57-1.33 1.86-2.05 1.28-.71 2.71-.71 1.42 0 2.51.48 1.1.47 1.48 1.52.38 1.14.52 2.23t.14 3.09q0 3.89-.28 7.5-.19 4.37-.19 6.37-.76 16.72-.76 28.21m21.07-46.26q3.33.28 5.8 1.75 2.47 1.48 2.47 4.42 0 2.19-2.04 3.47-2.05 1.28-4.9 1.28-2.75 0-3.79-1.42-1.05-1.43-1.05-2.95 0-2.85.62-4.75t2.89-1.8m7.61 24.98v19.86q0 3.7.23 6.98.24 3.28.62 6.6-.09.95-1.42 1.95-1.34 1-2.38 1-1.8 0-3.66-.72-1.85-.71-2.23-1.75-.57-3.04-.57-5.42 0-7.79-.47-17.48-.38-8.55-.38-11.97 0-1.71 1.71-2.94 1.7-1.24 3.61-1.24 2.75 0 3.84 1.24 1.1 1.23 1.1 3.89m55.2 28.69q.47.19 1.52.48 1.05.28 1.52.57.47.28.47.85.1 2.28-1.66 3.75-1.76 1.48-4.13 1.48-3.71 0-5.79-2-2.1-1.99-3.05-6.08-.38-1.61-.38-4.46 0-1.62.2-5.23.18-3.8.18-6.08 0-3.32-1.85-5.84t-5.18-2.52q-1.99 0-4.17 1.19-2.19 1.19-3.05 2.9-1.42 2.75-1.99 5.98-1.05 5.7-1.05 11.88 0 2.94.1 4.56 0 .38.05 1.47t-.19 1.99q-.24.91-.81 1.67-.48.47-1.47.8-1 .34-1.86.34-1.33 0-3.32-1.14-2-1.14-2.28-2.57l-.1-1.61q0-.86.19-2 1.14-6.65 1.14-11.59 0-2.18-.09-3.42l-.1-4.46q0-2.28-1.14-4.42t-2.65-2.14q-.48 0-1.34.33-.85.34-1.42.34-.95 0-2.04-.95-1.1-.95-1.1-2 0-1.99 1.34-3.23 1.42-1.14 2.8-1.8 1.37-.67 3.18-.67 1.52 0 2.47.29.95.28 2.56 1.23.86.48 2 2.09 1.14 1.62 1.9 4.56 2.47-4.56 6.13-6.41t9.36-1.85q2.18 0 4.7 1.42 2.51 1.43 4.32 3.33 1.71 2.09 2.85 5.17 1.14 3.09 1.14 5.56 0 1.43-.19 4.66-.28 2.56-.28 5.41 0 6.65 2.56 8.17m17.67 7.7q-1.9 0-3.23-.67-1.33-.66-1.62-1.42-1.04-3.8-1.04-9.98 0-11.4.38-18.52.38-8.46.38-16.25 0-2.28-.57-6.65-.1-.76-.28-2.75-.2-2-.2-3.71 0-2.09 1.48-3.32 1.47-1.24 3.85-1.24 1.89 0 3.08 1.19t1.19 3.18q0 3.04.19 8.55.19 5.13.19 7.7 0 2.85-.19 7.6-.19 2.85-.19 4.18 0 4.18.1 6.93 3.51-3.51 9.21-8.26t8.83-6.65q3.33-2 4.37-2 2 0 3.43.86 1.42.85 1.42 2.47 0 1.61-.48 2.56-.47.95-1.7 1.9l-12.26 8.93q2.09 1.05 3.56 2.66 1.48 1.62 3 3.99 3.23 5.32 5.17 7.79 1.95 2.47 3.57 2.47l2.37-.09q.66 0 1.19.76.52.76.52 2.18 0 2.19-2.14 3.52t-4.8 1.33q-3.7 0-6.55-2.9t-5.42-7.84q-3.7-7.03-7.31-8.36l-6.08 4.94.38 10.36q0 2.47-1.28 3.51-1.28 1.05-2.52 1.05m41.04-20.51q0-3.61 1.33-7.27t3.52-6.7q2.18-3.04 6.93-4.99 4.75-1.94 8.46-1.94 3.79 0 7.74 1.04 3.94 1.05 5.46 3.23 3.52 4.94 3.52 9.69 0 2.57-1.1 4.37-1.09 1.81-3.09 3.9-1.61 1.71-5.08 2.28-3.46.57-6.88.57-2.19 0-5.32-.43-3.14-.43-6.09-1.09.2 1.9.96 3.7.75 1.81 1.8 2.76 1.9 1.8 3.94 2.28 2.04.47 5.27.47 3.43 0 6.37-1.14 2.37-.85 3.89-.85 1.81 0 2.76 1.09t.95 2.8q0 2.38-2.75 3.9-2.76 1.52-6.32 2.23t-5.75.71q-4.46 0-8.65-1.61-4.17-1.62-6.93-4.56-2.28-2.66-3.61-6.42-1.33-3.75-1.33-8.02m20.71-12.83q-2.09 0-4.18.81t-3.42 2.23q-1.71 1.81-2.33 2.9-.61 1.09-.8 2.99 2.37.76 9.88.76 4.08 0 6.31-1.23 2.23-1.24 2.23-3.23 0-2-2.46-3.61-2.47-1.62-5.23-1.62m39.43 29.17q0 1.61-1.24 2.85-1.23 1.23-3.04 1.23-2.85 0-4.18-1.09t-1.33-4.04q0-3.51-.19-9.21-.19-4.75-.19-7.98 0-1.52.19-3.99.19-2.28.19-3.42-.28-1.81-1.42-3-1.14-1.18-2.95-1.18-.85 0-1.42-.81t-.57-1.66q0-2.19 1.75-3.33 1.76-1.14 4.23-1.14 5.13 0 7.13 6.08 2.47-2.85 5.65-4.61 3.18-1.75 6.13-1.75 3.51 0 6.41 1.9t2.9 5.13q0 1.8-1.57 3.7t-3.18 1.9q-.86 0-1.48-.43-.61-.42-1.47-1.28-.95-.95-1.61-1.38-.67-.42-1.52-.42-1.52 0-2.85.47-1.33.48-1.81 1.14-1.52 2.38-2.23 4.28t-.71 4.08q0 1.62-.1 2.57l-.09 5.41q0 1.24.09 2.76.1 1.52.19 2.28.29 2.56.29 4.94"/><rect width="436.29" height="107.35" x="-562.794" y="-389.337" fill="none" rx="0" ry="0" transform="translate(462.85 400.05)"/><path fill="#facfad" d="M-152.294 51.163q.93 1.12 1.31 1.8.37.68.37 1.3 0 .75-.96 1.74t-1.89.99q-1.24 0-1.99-.37-.74-.37-1.24-1.18-.99-1.49-2.42-2.57-1.42-1.09-4.46-1.09-2.6 0-5.92 1.18t-4.74 2.92q-1.24 1.55-2.14 4.71t-.9 6.14q0 3.59 1.58 6.6t4.59 4.8q3 1.8 7.22 1.8 2.29 0 4.74-.9t4.25-2.94h-.06q1.11-1.18 2.79-1.18.99 0 1.89.87t.9 1.73q0 .93-.28 1.65-.28.71-1.02 1.58-2.55 2.85-6.02 3.9-3.47 1.06-8.31 1.06-4.27 0-8.65-2.05-4.37-2.04-6.72-4.96-1.24-1.8-2.39-5.17-1.15-3.38-1.15-5.49 0-5.4 1.65-10.26 1.64-4.87 4.93-7.78 2.17-1.99 6.26-2.98t7.5-.99q4.15 0 6.54 1.15 2.39 1.14 4.74 3.99"/><rect width="40.48" height="70.06" x="-364.894" y="-370.697" fill="none" rx="0" ry="0" transform="translate(178.06 401.31)"/></g><path fill="transparent" stroke="transparent" stroke-width=".184" d="M12.5 54.177h103v19.646h-103z"/></g></svg>